#!OML:ASF I:\Random Stuff\random\construction\7_22_03\Session 2\subj1.ASF
:FULLY-SPECIFIED
:DEGREES
2236
root -8.90648 17.6367 -5.92864 -141.344 68.1476 -160.139
lowerback 15.9016 1.03243 -9.28203
upperback 6.40558 0.562006 -7.09978
thorax -2.00292 0.566382 -2.40427
lowerneck -20.8761 -1.89962 -0.0297577
upperneck 43.6225 -1.94898 4.17701
head 21.1604 0.463155 1.9665
rclavicle 4.92986e-014 -1.90833e-014
rhumerus -15.9513 59.7461 -56.7724
rradius 84.7715
rwrist 24.8726
rhand -35.4589 20.9722
rfingers 7.12502
rthumb -8.5876 -8.83313
lclavicle 4.92986e-014 -1.90833e-014
lhumerus 29.6129 -67.6551 70.798
lradius 36.5612
lwrist 1.44683
lhand -20.8308 59.3227
lfingers 7.12502
lthumb 5.53775 -1350.77
rfemur -12.7831 -6.94773 20.6706
rtibia 3.33958e-014
rfoot -2.05907 -14.5436
rtoes -17.9313
lfemur -41.2921 -8.17361 -5.68682
ltibia 33.1783
lfoot -12.2538 -3.82871
ltoes -29.6826
2237
root -8.90607 17.6359 -5.92822 -141.257 68.1601 -160.034
lowerback 15.8792 1.05118 -9.24916
upperback 6.41265 0.594026 -7.08186
thorax -1.9848 0.580956 -2.40801
lowerneck -20.909 -1.91594 -0.0400218
upperneck 43.6932 -1.9379 4.13031
head 21.2203 0.461081 1.95147
rclavicle 4.6118e-014 -7.31528e-014
rhumerus -15.8044 59.7327 -56.703
rradius 84.5671
rwrist 24.5941
rhand -35.9924 20.3248
rfingers 7.12502
rthumb -9.10251 -9.45881
lclavicle 4.6118e-014 -7.31528e-014
lhumerus 29.7204 -67.72 70.6754
lradius 36.5974
lwrist 1.48545
lhand -20.7638 59.3417
lfingers 7.12502
lthumb 5.60236 -1350.75
rfemur -12.7791 -6.91332 20.6968
rtibia 8.74653e-015
rfoot -2.03435 -14.5454
rtoes -17.9638
lfemur -41.2852 -8.14974 -5.65295
ltibia 33.2062
lfoot -12.2278 -3.82071
ltoes -29.5306
2238
root -8.90587 17.6358 -5.92902 -141.252 68.1832 -160.013
lowerback 15.8506 1.05225 -9.22284
upperback 6.41073 0.603007 -7.10423
thorax -1.97176 0.585929 -2.44734
lowerneck -20.8796 -1.92202 0.0119159
upperneck 43.713 -1.94789 4.09292
head 21.224 0.462062 1.92106
rclavicle 2.38542e-014 4.77083e-014
rhumerus -15.7948 59.6894 -56.8321
rradius 84.3761
rwrist 23.6842
rhand -36.4682 19.8625
rfingers 7.12502
rthumb -9.56157 -9.90053
lclavicle 2.38542e-014 4.77083e-014
lhumerus 29.7712 -67.7865 70.5368
lradius 36.642
lwrist 1.50078
lhand -20.6502 59.3587
lfingers 7.12502
lthumb 5.71212 -1350.74
rfemur -12.7676 -6.89127 20.6873
rtibia 4.85035e-014
rfoot -1.98744 -14.5501
rtoes -18.2714
lfemur -41.2682 -8.17798 -5.63706
ltibia 33.2247
lfoot -12.2098 -3.83129
ltoes -29.1624
2239
root -8.90555 17.6363 -5.92864 -141.281 68.2373 -160.043
lowerback 15.8077 1.06102 -9.23549
upperback 6.40899 0.619674 -7.14153
thorax -1.95037 0.594789 -2.48214
lowerneck -20.885 -1.92966 0.0207395
upperneck 43.6896 -1.98643 4.12895
head 21.2116 0.453735 1.92811
rclavicle -4.45278e-014 3.18055e-015
rhumerus -15.9488 59.632 -57.0758
rradius 84.3471
rwrist 22.187
rhand -36.5521 19.4497
rfingers 7.12502
rthumb -9.64256 -10.3096
lclavicle -4.45278e-014 3.18055e-015
lhumerus 30.0221 -67.9203 70.1963
lradius 36.675
lwrist 1.63058
lhand -20.6666 59.364
lfingers 7.12502
lthumb 5.69625 -1350.73
rfemur -12.7726 -6.85672 20.6457
rtibia -3.02153e-014
rfoot -1.9732 -14.5592
rtoes -18.3427
lfemur -41.2407 -8.138 -5.67625
ltibia 33.2134
lfoot -12.2027 -3.89516
ltoes -28.8974
2240
root -8.90582 17.6366 -5.92672 -141.353 68.2376 -160.068
lowerback 15.86 1.07706 -9.22921
upperback 6.42695 0.638847 -7.14405
thorax -1.95905 0.605522 -2.49299
lowerneck -20.9052 -1.93845 -0.0217644
upperneck 43.614 -2.02956 4.19848
head 21.168 0.437733 1.95773
rclavicle 6.36111e-015 -6.04305e-014
rhumerus -16.0518 59.4205 -57.1685
rradius 84.353
rwrist 21.2258
rhand -36.3727 18.8
rfingers 7.12502
rthumb -9.46943 -10.9672
lclavicle 6.36111e-015 -6.04305e-014
lhumerus 30.3011 -68.0246 69.9052
lradius 36.6818
lwrist 1.73042
lhand -20.671 59.3729
lfingers 7.12502
lthumb 5.69197 -1350.72
rfemur -12.7509 -6.85864 20.6535
rtibia -2.78299e-014
rfoot -1.85671 -14.6054
rtoes -19.1039
lfemur -41.1741 -8.06064 -5.73245
ltibia 33.1766
lfoot -12.181 -3.98914
ltoes -28.9862
2241
root -8.90403 17.6398 -5.92621 -141.24 68.3243 -159.98
lowerback 15.7619 1.12643 -9.26248
upperback 6.4389 0.713239 -7.13344
thorax -1.89565 0.639099 -2.47303
lowerneck -20.9098 -1.94357 -0.0124478
upperneck 43.5093 -2.04995 4.16898
head 21.0933 0.42388 1.92879
rclavicle -7.31528e-014 0
rhumerus -16.0175 59.0564 -57.062
rradius 84.3469
rwrist 20.4901
rhand -35.9538 18.1793
rfingers 7.12502
rthumb -9.06519 -11.6059
lclavicle -7.31528e-014 0
lhumerus 30.4529 -68.0352 69.8143
lradius 36.6799
lwrist 1.70069
lhand -20.5952 59.382
lfingers 7.12502
lthumb 5.76519 -1350.72
rfemur -12.8637 -6.76065 20.675
rtibia -3.49861e-014
rfoot -1.56322 -14.6393
rtoes -20.8481
lfemur -41.1434 -7.90291 -5.79137
ltibia 33.1296
lfoot -12.1888 -4.01662
ltoes -29.2078
2242
root -8.90404 17.6411 -5.92605 -141.293 68.3571 -160.048
lowerback 15.7429 1.15156 -9.27849
upperback 6.44543 0.74739 -7.12245
thorax -1.87936 0.654917 -2.45764
lowerneck -20.9244 -1.96165 -0.0276251
upperneck 43.4632 -2.08405 4.1725
head 21.0665 0.407569 1.92269
rclavicle -2.54444e-014 -1.27222e-013
rhumerus -15.9831 58.6275 -56.9626
rradius 84.393
rwrist 19.1715
rhand -35.221 17.9347
rfingers 7.12502
rthumb -8.35809 -11.8799
lclavicle -2.54444e-014 -1.27222e-013
lhumerus 30.3979 -67.9641 69.9943
lradius 36.6269
lwrist 1.56655
lhand -20.5385 59.353
lfingers 7.12502
lthumb 5.81993 -1350.75
rfemur -12.9235 -6.74941 20.6498
rtibia -3.18055e-015
rfoot -1.38911 -14.6398
rtoes -21.8279
lfemur -41.133 -7.9752 -5.80066
ltibia 33.0946
lfoot -12.1798 -3.91345
ltoes -29.2314
2243
root -8.90302 17.6407 -5.92483 -141.3 68.3622 -160.061
lowerback 15.7292 1.16895 -9.26943
upperback 6.43324 0.770453 -7.1191
thorax -1.88593 0.666053 -2.46287
lowerneck -20.9354 -1.98235 -0.0563982
upperneck 43.4925 -2.14114 4.26673
head 21.0979 0.396599 1.96671
rclavicle -4.45278e-014 1.11319e-014
rhumerus -16.0569 58.2808 -57.0422
rradius 84.4399
rwrist 17.2039
rhand -34.622 17.795
rfingers 7.12502
rthumb -7.77996 -12.0419
lclavicle -4.45278e-014 1.11319e-014
lhumerus 30.1559 -67.8599 70.3702
lradius 36.4893
lwrist 1.38548
lhand -20.4987 59.296
lfingers 7.12502
lthumb 5.85833 -1350.8
rfemur -12.9367 -6.74849 20.647
rtibia -2.78299e-014
rfoot -1.37146 -14.6222
rtoes -21.9898
lfemur -41.1292 -7.96906 -5.80492
ltibia 33.0797
lfoot -12.1836 -3.90543
ltoes -29.288
2244
root -8.90244 17.6383 -5.92371 -141.405 68.3397 -160.153
lowerback 15.7382 1.17098 -9.27681
upperback 6.42798 0.769816 -7.10934
thorax -1.89657 0.665654 -2.4486
lowerneck -20.9235 -1.98624 -0.0506405
upperneck 43.5077 -2.16769 4.3173
head 21.1083 0.396313 1.98737
rclavicle -2.54444e-014 -4.77083e-014
rhumerus -16.225 58.1729 -57.2176
rradius 84.4573
rwrist 14.8332
rhand -34.5251 16.9899
rfingers 7.12502
rthumb -7.68637 -12.8504
lclavicle -2.54444e-014 -4.77083e-014
lhumerus 30.0179 -67.8331 70.5766
lradius 36.4271
lwrist 1.33053
lhand -20.5343 59.2549
lfingers 7.12502
lthumb 5.82402 -1350.85
rfemur -12.8715 -6.7928 20.6103
rtibia -5.56597e-015
rfoot -1.52056 -14.5769
rtoes -20.9242
lfemur -41.1237 -7.91344 -5.8659
ltibia 33.0814
lfoot -12.187 -3.99713
ltoes -29.3891
2245
root -8.90077 17.6371 -5.92372 -141.393 68.3587 -160.165
lowerback 15.6761 1.18503 -9.27833
upperback 6.41816 0.793689 -7.10448
thorax -1.87487 0.675925 -2.44487
lowerneck -20.8991 -2.007 -0.0566902
upperneck 43.5032 -2.20855 4.34299
head 21.1006 0.384077 1.99218
rclavicle 7.79236e-014 -1.94014e-013
rhumerus -16.4824 58.1216 -57.4422
rradius 84.5462
rwrist 12.3502
rhand -34.3036 15.3953
rfingers 7.12502
rthumb -7.47265 -14.4527
lclavicle 7.79236e-014 -1.94014e-013
lhumerus 30.0285 -67.9057 70.5589
lradius 36.5058
lwrist 1.44471
lhand -20.6324 59.3251
lfingers 7.12502
lthumb 5.72922 -1350.77
rfemur -12.8543 -6.78497 20.5798
rtibia 2.62396e-014
rfoot -1.65303 -14.5645
rtoes -19.8022
lfemur -41.1429 -7.93155 -5.85859
ltibia 33.0914
lfoot -12.1829 -3.98416
ltoes -29.1758
2246
root -8.90069 17.6375 -5.92344 -141.468 68.3581 -160.244
lowerback 15.6828 1.1781 -9.25673
upperback 6.41293 0.786858 -7.12989
thorax -1.88346 0.674142 -2.48323
lowerneck -20.8925 -2.03621 -0.0600103
upperneck 43.494 -2.28524 4.40679
head 21.0984 0.363927 2.00809
rclavicle 3.33958e-014 1.60618e-013
rhumerus -16.7643 58.0854 -57.6937
rradius 84.7059
rwrist 9.8625
rhand -33.9599 13.2721
rfingers 7.12502
rthumb -7.14086 -16.5874
lclavicle 3.33958e-014 1.60618e-013
lhumerus 30.0786 -67.9724 70.4636
lradius 36.5721
lwrist 1.58537
lhand -20.6718 59.3708
lfingers 7.12502
lthumb 5.69127 -1350.73
rfemur -12.851 -6.80482 20.5555
rtibia -3.97569e-015
rfoot -1.6653 -14.5798
rtoes -19.6168
lfemur -41.1462 -8.10491 -5.80739
ltibia 33.0879
lfoot -12.2017 -3.84798
ltoes -28.9427
2247
root -8.89984 17.6385 -5.92371 -141.522 68.3794 -160.312
lowerback 15.6357 1.17249 -9.24053
upperback 6.43772 0.794488 -7.16299
thorax -1.83113 0.678402 -2.52705
lowerneck -20.9542 -2.0536 -0.0609
upperneck 43.4516 -2.34844 4.45077
head 21.092 0.344456 2.01439
rclavicle -2.06736e-014 2.06736e-014
rhumerus -16.8586 57.9667 -57.7559
rradius 84.8847
rwrist 6.98301
rhand -33.322 11.4416
rfingers 7.12502
rthumb -6.52503 -18.4379
lclavicle -2.06736e-014 2.06736e-014
lhumerus 30.1414 -67.9745 70.3747
lradius 36.5718
lwrist 1.61927
lhand -20.7166 59.2594
lfingers 7.12502
lthumb 5.64798 -1350.84
rfemur -12.8595 -6.80474 20.5225
rtibia -2.38542e-014
rfoot -1.67898 -14.5796
rtoes -19.6218
lfemur -41.1376 -8.17873 -5.80894
ltibia 33.0634
lfoot -12.2534 -3.75325
ltoes -29.1508
